<?xml version="1.0" encoding="UTF-8"?>
<svg width="512pt" height="512pt" version="1.1" viewBox="0 0 512 512" xmlns="http://www.w3.org/2000/svg">
 <path d="m106.27 23.969c-21.906 0-39.859 17.773-39.859 39.625v384.8c0 21.852 17.953 39.641 39.859 39.641h299.47c21.906 0 39.859-17.789 39.859-39.641v-384.8c0-21.852-17.953-39.625-39.859-39.625zm0 16h299.47c13.371 0 23.859 10.414 23.859 23.625v384.8c0 13.211-10.488 23.625-23.859 23.625h-299.47c-13.371 0-23.859-10.414-23.859-23.625v-384.8c0-13.211 10.488-23.625 23.859-23.625zm104.47 63.547c-2.125-0.0625-4.1914 0.72656-5.7344 2.1875l-40.859 38.5-17.609-18.422c-3.0547-3.1602-8.082-3.2656-11.266-0.23438-3.1914 3.0312-3.332 8.0742-0.3125 11.281l23.031 24.156c3.043 3.1797 8.082 3.3047 11.281 0.28125l46.719-43.922c3.1992-3.0273 3.3516-8.0703 0.34375-11.281-1.4492-1.5625-3.4648-2.4766-5.5938-2.5469zm44.172 21.969c-4.3945 0.015625-7.9531 3.5742-7.9688 7.9688-0.007812 2.1211 0.82812 4.1602 2.3203 5.668 1.4961 1.5039 3.5273 2.3555 5.6484 2.3633h116.28c2.1328 0.007813 4.1797-0.83594 5.6875-2.3438s2.3516-3.5547 2.3438-5.6875c-0.007812-2.1211-0.85938-4.1523-2.3672-5.6484-1.5039-1.4922-3.543-2.3281-5.6641-2.3203zm-44.172 100.52c-2.125-0.0625-4.1914 0.72656-5.7344 2.1875l-40.859 38.5-17.609-18.375c-3.0352-3.1758-8.0664-3.3086-11.266-0.29688-1.5508 1.4609-2.457 3.4766-2.5156 5.6094-0.058594 2.1289 0.73438 4.1914 2.2031 5.7344l23.031 24.156c3.0391 3.1875 8.0781 3.3203 11.281 0.29688l46.719-43.938c1.5547-1.457 2.4688-3.4727 2.5312-5.6016 0.066406-2.1289-0.72266-4.1953-2.1875-5.7422-1.4531-1.5547-3.4648-2.4648-5.5938-2.5312zm44.172 22.031c-4.3945 0.015625-7.9531 3.5742-7.9688 7.9688-0.007812 2.1211 0.82812 4.1602 2.3203 5.668 1.4961 1.5039 3.5273 2.3555 5.6484 2.3633h116.28c2.1328 0.007812 4.1797-0.83594 5.6875-2.3438s2.3516-3.5547 2.3438-5.6875c-0.007812-2.1211-0.85938-4.1523-2.3672-5.6484-1.5039-1.4922-3.543-2.3281-5.6641-2.3203zm-44.172 100.52c-2.125-0.066406-4.1875 0.71484-5.7344 2.1719l-40.859 38.5-17.609-18.359c-3.0352-3.1758-8.0664-3.3086-11.266-0.29688-1.5508 1.4609-2.457 3.4766-2.5156 5.6055-0.058594 2.1328 0.73438 4.1953 2.2031 5.7383l23.031 24.094c3.0391 3.1875 8.0781 3.3203 11.281 0.29688l46.719-43.938c3.1992-3.0234 3.3516-8.0664 0.34375-11.281-1.4531-1.5547-3.4648-2.4648-5.5938-2.5312zm44.172 21.953c-2.1211 0.007812-4.1523 0.85938-5.6484 2.3672-1.4922 1.5039-2.3281 3.543-2.3203 5.6641 0.007812 4.3984 3.5703 7.9688 7.9688 7.9844h116.28c2.125 0.007813 4.1641-0.82812 5.6719-2.3281 1.5078-1.4961 2.3555-3.5312 2.3594-5.6562 0.007812-2.1328-0.83594-4.1797-2.3438-5.6875s-3.5547-2.3516-5.6875-2.3438z" fill-rule="evenodd"/>
</svg>
